<svg class="app-logo" height="64" viewBox="0 0 90 64" width="90" xmlns="http://www.w3.org/2000/svg" style="
    color: #fff;
"><path clip-rule="evenodd" d="M42.3471 27.0398C38.1085 21.133 31.1823 17.2852 23.3573 17.2852C10.4574 17.2852 0 27.7426 0 40.6425C0 53.5423 10.4574 63.9997 23.3573 63.9997C31.1988 63.9997 38.1378 60.1356 42.374 54.2077C40.0425 50.2107 38.7068 45.5617 38.7068 40.6007C38.7068 35.6588 40.0323 31.0264 42.3471 27.0398Z" fill="currentColor" fill-rule="evenodd"></path><path d="M66.0643 63.9997C78.9642 63.9997 89.4216 53.5423 89.4216 40.6425C89.4216 27.7426 78.9642 17.2852 66.0643 17.2852C53.1645 17.2852 42.707 27.7426 42.707 40.6425C42.707 53.5423 53.1645 63.9997 66.0643 63.9997Z" fill="currentColor"></path><path d="M22.8349 11.7034C23.3835 11.8372 23.5702 13.0132 23.5702 13.0132C23.5702 13.0132 19.1721 13.1648 15.1199 14.4446C11.0482 15.7308 7.32233 18.1449 7.32233 18.1449C7.32233 18.1449 6.80011 17.0754 7.17186 16.6504C6.9859 16.2499 6.7974 15.8574 6.60637 15.4729C6.57207 15.5003 6.53814 15.5279 6.50458 15.5561C6.43795 15.6082 6.36114 15.6458 6.2791 15.6665C6.19706 15.6871 6.1116 15.6904 6.02823 15.676C5.94485 15.6617 5.86541 15.63 5.79501 15.5831C5.72461 15.5362 5.66481 15.4751 5.61946 15.4036C5.5121 15.2618 5.46136 15.085 5.4771 14.9078C5.49285 14.7305 5.57396 14.5655 5.70465 14.4448C5.7898 14.3731 5.8777 14.3017 5.96834 14.2307C4.7513 11.9423 3.39805 9.83379 1.76562 7.51859C3.23578 7.2431 5.82832 7.54317 7.10818 8.49369C7.21771 9.92218 7.5945 10.796 8.08206 11.2843C9.58479 12.79 12.4361 10.854 10.968 8.40322C10.5942 7.77909 9.91462 7.24015 8.80552 7.02292C8.72721 4.40346 9.29565 1.75278 10.5249 0C12.5381 0.728502 14.526 2.57188 15.9661 4.7612C15.1837 5.57588 14.9367 6.4074 14.9891 7.1332C15.1948 9.98217 18.6414 9.92931 19.0064 7.83391C19.125 7.15409 18.9326 6.22214 18.2009 4.98998C18.7025 3.47716 20.652 1.74209 22.0142 1.123C22.0078 3.96546 22.1125 6.4755 22.4329 9.05661C22.5262 9.0587 22.6191 9.06128 22.7118 9.06472C22.8882 9.08018 23.0525 9.16114 23.1722 9.29166C23.2918 9.42217 23.3583 9.59278 23.3585 9.76987C23.3659 9.85412 23.3557 9.93898 23.3285 10.0191C23.3014 10.0992 23.2579 10.1728 23.2008 10.2352C23.1438 10.2976 23.0743 10.3475 22.997 10.3817C22.9196 10.4158 22.836 10.4335 22.7514 10.4337C22.7086 10.432 22.666 10.4308 22.6228 10.4294C22.6871 10.8502 22.7576 11.275 22.8344 11.7039L22.8349 11.7034Z" fill="currentColor"></path><path d="M66.4784 11.8264C65.9298 11.9603 65.7432 13.1363 65.7432 13.1363C65.7432 13.1363 70.1412 13.2878 74.1935 14.5677C78.2651 15.8538 81.991 18.268 81.991 18.268C81.991 18.268 82.5132 17.1985 82.1415 16.7735C82.3274 16.373 82.5159 15.9804 82.707 15.5959C82.7413 15.6233 82.7752 15.651 82.8087 15.6791C82.8754 15.7313 82.9522 15.7689 83.0342 15.7895C83.1163 15.8102 83.2017 15.8135 83.2851 15.7991C83.3685 15.7847 83.4479 15.7531 83.5183 15.7062C83.5887 15.6592 83.6485 15.5981 83.6939 15.5267C83.8012 15.3848 83.852 15.208 83.8362 15.0308C83.8205 14.8536 83.7394 14.6885 83.6087 14.5678C83.5235 14.4961 83.4356 14.4248 83.345 14.3538C84.562 12.0654 85.9153 9.95684 87.5477 7.64164C86.0777 7.36615 83.485 7.66622 82.2051 8.61674C82.0956 10.0452 81.7187 10.919 81.2313 11.4073C79.7285 12.913 76.8772 10.9771 78.3453 8.52627C78.7191 7.90213 79.3987 7.36319 80.5078 7.14597C80.5861 4.52651 80.0177 1.87583 78.7885 0.123047C76.7752 0.851549 74.7874 2.69493 73.3472 4.88424C74.1297 5.69892 74.3766 6.53045 74.3243 7.25624C74.1185 10.1052 70.6719 10.0524 70.3069 7.95696C70.1884 7.27714 70.3807 6.34518 71.1124 5.11303C70.6108 3.60021 68.6613 1.86513 67.2991 1.24604C67.3055 4.0885 67.2008 6.59855 66.8804 9.17966C66.7871 9.18175 66.6941 9.18432 66.6015 9.18777C66.4251 9.20322 66.2608 9.28419 66.1412 9.4147C66.0215 9.54522 65.955 9.71583 65.9549 9.89291C65.9475 9.97717 65.9577 10.062 65.9848 10.1421C66.0119 10.2222 66.0554 10.2958 66.1125 10.3582C66.1696 10.4207 66.239 10.4705 66.3163 10.5047C66.3937 10.5389 66.4773 10.5566 66.5619 10.5567C66.6047 10.555 66.6473 10.5538 66.6905 10.5524C66.6262 10.9732 66.5557 11.398 66.4789 11.8269L66.4784 11.8264Z" fill="currentColor"></path><path d="M62.2906 53.6143C61.3113 53.354 60.3569 53.0076 59.4386 52.5792C58.5415 52.1605 57.684 51.6617 56.8765 51.089C56.0977 50.5382 55.3645 49.9256 54.6839 49.2573C54.4551 49.032 54.2376 48.8032 54.0313 48.5708C53.8884 48.4116 53.782 48.2232 53.7195 48.0186C53.6569 47.814 53.6398 47.5983 53.6693 47.3864C53.6988 47.1745 53.7741 46.9716 53.8901 46.7919C54.0061 46.6121 54.16 46.4599 54.3409 46.3457L58.2311 43.8915C58.5357 43.6975 58.9009 43.6222 59.2573 43.6799C59.6138 43.7376 59.9366 43.9243 60.1643 44.2045C60.5096 44.6299 60.8897 45.0259 61.3006 45.3883C62.0883 46.1033 63.0345 46.6208 64.0615 46.8982C64.4926 47.0192 64.9439 47.0515 65.3879 46.9932C65.8114 46.934 66.0818 46.6861 66.1993 46.2496C66.2618 46.0401 66.2503 45.8154 66.1667 45.6134C66.0331 45.3538 65.8497 45.123 65.627 44.9342C65.2555 44.6008 64.8623 44.2923 64.4499 44.011C63.9407 43.654 63.2969 43.2237 62.5188 42.7202C61.7746 42.2321 61.0661 41.6916 60.3987 41.1029C59.7582 40.5421 59.2036 39.8903 58.7526 39.1683C58.3093 38.4495 58.0146 37.649 57.886 36.8144C57.7476 35.9527 57.8238 34.982 58.1146 33.9023C58.5226 32.387 59.18 31.1838 60.0867 30.2929C60.965 29.4201 62.0241 28.7508 63.1894 28.3321C64.3746 27.9118 65.6273 27.7137 66.8844 27.7479C68.1505 27.7697 69.4094 27.9441 70.6338 28.2674C72.3138 28.7291 73.8974 29.4883 75.3093 30.5091C76.3162 31.217 77.224 32.056 78.0088 33.0041C78.1411 33.1681 78.2363 33.3589 78.2879 33.5633C78.3395 33.7676 78.3463 33.9807 78.3077 34.1879C78.2692 34.3951 78.1862 34.5915 78.0646 34.7637C77.943 34.9358 77.7856 35.0796 77.6032 35.1851L73.7488 37.451C73.4379 37.6346 73.0704 37.6978 72.716 37.6286C72.3616 37.5594 72.0449 37.3627 71.8259 37.0756C71.5473 36.7077 71.224 36.3759 70.8636 36.0877C70.1523 35.5173 69.4742 35.1461 68.8293 34.9741C68.23 34.8143 67.7231 34.7713 67.3084 34.845C67.1225 34.8661 66.9478 34.9443 66.8081 35.0687C66.6685 35.1932 66.5708 35.3578 66.5285 35.54C66.4296 35.9069 66.5456 36.2328 66.8765 36.5177C67.4062 36.9453 67.962 37.3395 68.5406 37.6979C69.3419 38.206 70.1771 38.7726 71.0461 39.3978C71.9005 40.0092 72.6718 40.7291 73.3406 41.5393C73.9948 42.3309 74.4852 43.2447 74.7833 44.2275C75.085 45.2176 75.0661 46.3429 74.7266 47.6035C74.3315 49.071 73.6936 50.2709 72.8127 51.2032C71.9608 52.1151 70.9211 52.8314 69.7654 53.3024C68.5984 53.7729 67.356 54.0285 66.0981 54.057C64.8142 54.0942 63.5317 53.9451 62.2906 53.6143Z" fill="#01DB80"></path><path d="M10.7419 43.6638C10.2355 41.7543 10.1102 39.934 10.3663 38.2029C10.6006 36.5326 11.1725 34.9275 12.0472 33.4855C12.9295 32.0528 14.0899 30.8115 15.46 29.835C16.9043 28.7991 18.5258 28.0358 20.2445 27.5828C22.0034 27.0953 23.8348 26.9239 25.6536 27.0765C26.7423 27.1638 27.8162 27.3842 28.8513 27.7327C29.049 27.8001 29.2303 27.908 29.3838 28.0497C29.5372 28.1913 29.6593 28.3634 29.7423 28.555C29.8253 28.7467 29.8673 28.9535 29.8656 29.1623C29.8639 29.3711 29.8186 29.5772 29.7325 29.7675L27.7164 34.1998C27.5682 34.536 27.298 34.8035 26.9604 34.9483C26.6228 35.0932 26.2428 35.1047 25.897 34.9806C25.6203 34.8774 25.3342 34.8017 25.0428 34.7545C24.2558 34.634 23.4522 34.6851 22.6869 34.9042C22.045 35.0726 21.4421 35.3645 20.9121 35.7638C20.4012 36.151 19.9771 36.641 19.667 37.2021C19.345 37.7926 19.1462 38.4423 19.0826 39.1119C19.0117 39.8645 19.0797 40.6237 19.2832 41.3517C19.4614 42.0751 19.7818 42.7558 20.2257 43.3542C20.6234 43.8834 21.1186 44.3318 21.6846 44.6752C22.2312 45.0052 22.8415 45.2155 23.4754 45.2922C24.1218 45.3713 24.7775 45.3228 25.4053 45.1494C26.317 44.9024 27.0505 44.4992 27.6058 43.9396C27.7845 43.7601 27.9522 43.57 28.1081 43.3704C28.3441 43.0773 28.684 42.8863 29.0571 42.837C29.4302 42.7878 29.8079 42.8841 30.1119 43.106L34.0581 45.9139C34.2202 46.0286 34.3576 46.1747 34.4624 46.3434C34.5672 46.5121 34.6371 46.7001 34.668 46.8963C34.6989 47.0925 34.6903 47.2929 34.6425 47.4856C34.5948 47.6784 34.5089 47.8597 34.39 48.0187C33.6949 48.913 32.8852 49.7118 31.9817 50.3948C30.5944 51.4564 28.9109 52.2551 26.9313 52.791C25.2202 53.2669 23.4353 53.4193 21.6684 53.2403C19.9957 53.0803 18.3735 52.5801 16.9012 51.7704C15.4289 50.9608 14.1376 49.8587 13.1066 48.532C12.0308 47.1742 11.2426 45.5515 10.7419 43.6638Z" fill="#FFC600"></path></svg>