<svg fill="none" height="100%" viewBox="0 0 15 12" width="100%" xmlns="http://www.w3.org/2000/svg"><path d="M13.2997 10.9198C13.6408 11.135 13.5163 12 13.5163 12H1.48054C1.48054 12 1.35549 11.135 1.69719 10.9198C1.65717 10.5983 1.61383 10.2817 1.56715 9.97004C1.53808 9.98174 1.50932 9.99344 1.48087 10.0058C1.42495 10.0274 1.36531 10.0365 1.30578 10.0328C1.24626 10.029 1.18814 10.0123 1.13516 9.98381C1.08219 9.95532 1.03554 9.91564 0.998166 9.86732C0.960794 9.81899 0.93353 9.76308 0.918141 9.70317C0.876058 9.58005 0.879515 9.44506 0.927815 9.32443C0.976116 9.2038 1.06581 9.10615 1.17949 9.05046C1.25202 9.01904 1.32643 8.98849 1.40271 8.9588C1.05102 7.05267 0.582496 5.17187 0 3.3279C1.04883 3.4602 2.73132 4.24422 3.39126 5.19273C3.16117 6.2173 3.22902 6.91291 3.45379 7.36279C4.14561 8.74979 6.47805 8.02427 6.01069 5.98358C5.92848 5.66978 5.78199 5.37815 5.58126 5.12871C5.38053 4.87926 5.13031 4.6779 4.84774 4.5384C5.35231 2.68559 6.29923 0.955657 7.49999 0C8.70107 0.955657 9.64767 2.68624 10.1522 4.5384C9.86972 4.67797 9.61953 4.87936 9.41882 5.12879C9.2181 5.37823 9.07158 5.66981 8.98929 5.98358C8.52037 8.0246 10.8547 8.74979 11.5462 7.36279C11.7707 6.91291 11.8391 6.21762 11.6087 5.19273C12.2687 4.24422 13.9509 3.4602 15 3.3279C14.415 5.17761 13.9451 7.06454 13.5932 8.977C13.6557 8.99867 13.7183 9.0211 13.7808 9.04429C13.8963 9.09411 13.9897 9.18713 14.0425 9.305C14.0954 9.42287 14.1038 9.55704 14.0662 9.68107C14.0532 9.7417 14.0283 9.79886 13.993 9.84893C13.9576 9.899 13.9127 9.9409 13.8609 9.97195C13.8092 10.003 13.7518 10.0225 13.6924 10.0293C13.6331 10.0361 13.573 10.03 13.516 10.0113L13.4304 9.97882C13.3841 10.2878 13.3412 10.601 13.3016 10.9182L13.2997 10.9198Z" fill="currentColor"></path></svg>