<svg class="logo" viewBox="0 0 109 88" fill="none" xmlns="http://www.w3.org/2000/svg">
<path fill-rule="evenodd" clip-rule="evenodd" d="M49.7847 31.4126C44.8516 24.5506 36.7907 20.0806 27.6838 20.0806C12.6706 20.0806 0.5 32.2291 0.5 47.2151C0.5 62.2012 12.6706 74.3497 27.6838 74.3497C36.8099 74.3497 44.8857 69.8608 49.8159 62.9742C47.1024 58.3308 45.5479 52.93 45.5479 47.1667C45.5479 41.4255 47.0905 36.044 49.7847 31.4126Z" fill="#FFC600"></path>
<path d="M77.387 74.3497C92.4002 74.3497 104.571 62.2012 104.571 47.2151C104.571 32.2291 92.4002 20.0806 77.387 20.0806C62.3737 20.0806 50.2031 32.2291 50.2031 47.2151C50.2031 62.2012 62.3737 74.3497 77.387 74.3497Z" fill="#01DB80"></path>
<path d="M27.0757 13.596C27.7142 13.7515 27.9314 15.1177 27.9314 15.1177C27.9314 15.1177 22.8128 15.2938 18.0967 16.7806C13.358 18.2747 9.02173 21.0793 9.02173 21.0793C9.02173 21.0793 8.41395 19.8368 8.84661 19.3431C8.63018 18.8778 8.41081 18.4218 8.18847 17.9751C8.14855 18.0069 8.10907 18.0391 8.07001 18.0718C7.99246 18.1323 7.90307 18.176 7.80759 18.2C7.71211 18.224 7.61265 18.2278 7.51562 18.2111C7.41859 18.1945 7.32613 18.1577 7.24419 18.1032C7.16226 18.0487 7.09266 17.9777 7.03988 17.8947C6.91493 17.7298 6.85588 17.5245 6.87421 17.3186C6.89253 17.1127 6.98693 16.921 7.13903 16.7807C7.23813 16.6974 7.34043 16.6145 7.44592 16.5321C6.0295 13.8736 4.45455 11.4241 2.55469 8.73448C4.2657 8.41444 7.28296 8.76304 8.77249 9.86727C8.89997 11.5268 9.33849 12.5419 9.90592 13.1091C11.6548 14.8583 14.9733 12.6093 13.2647 9.76217C12.8296 9.0371 12.0387 8.411 10.7479 8.15865C10.6568 5.11558 11.3183 2.03624 12.7489 0C15.092 0.846313 17.4055 2.9878 19.0816 5.53117C18.171 6.47759 17.8835 7.44359 17.9445 8.28676C18.184 11.5965 22.1952 11.535 22.6199 9.10079C22.758 8.31103 22.5341 7.22837 21.6825 5.79695C22.2663 4.03948 24.5351 2.02381 26.1205 1.3046C26.1131 4.60674 26.235 7.52271 26.6078 10.5212C26.7164 10.5236 26.8246 10.5266 26.9324 10.5306C27.1378 10.5486 27.3289 10.6427 27.4682 10.7943C27.6075 10.9459 27.6848 11.1441 27.685 11.3498C27.6936 11.4477 27.6818 11.5463 27.6502 11.6393C27.6186 11.7324 27.568 11.8179 27.5016 11.8904C27.4351 11.9629 27.3543 12.0208 27.2643 12.0605C27.1743 12.1002 27.077 12.1208 26.9785 12.121C26.9287 12.119 26.8791 12.1176 26.8289 12.116C26.9036 12.6048 26.9857 13.0983 27.0751 13.5966L27.0757 13.596Z" fill="white"></path>
<path d="M77.8694 13.7388C77.2309 13.8943 77.0137 15.2605 77.0137 15.2605C77.0137 15.2605 82.1323 15.4366 86.8484 16.9234C91.5871 18.4175 95.9233 21.2221 95.9233 21.2221C95.9233 21.2221 96.5311 19.9796 96.0985 19.4859C96.3149 19.0206 96.5343 18.5646 96.7566 18.1179C96.7965 18.1497 96.836 18.1819 96.8751 18.2146C96.9526 18.2752 97.042 18.3188 97.1375 18.3428C97.233 18.3668 97.3324 18.3706 97.4295 18.3539C97.5265 18.3373 97.6189 18.3005 97.7009 18.246C97.7828 18.1915 97.8524 18.1205 97.9052 18.0375C98.0301 17.8727 98.0892 17.6673 98.0709 17.4614C98.0525 17.2555 97.9581 17.0638 97.806 16.9235C97.7069 16.8402 97.6046 16.7574 97.4991 16.6749C98.9156 14.0164 100.491 11.5669 102.39 8.8773C100.68 8.55725 97.6621 8.90585 96.1726 10.0101C96.0451 11.6696 95.6064 12.6847 95.0392 13.252C93.2902 15.0011 89.9718 12.7521 91.6804 9.90498C92.1155 9.17991 92.9064 8.55382 94.1972 8.30147C94.2883 5.25839 93.6267 2.17905 92.1962 0.142814C89.8531 0.989127 87.5396 3.13061 85.8635 5.67398C86.7741 6.6204 87.0616 7.5864 87.0006 8.42957C86.7611 11.7393 82.7499 11.6779 82.3251 9.2436C82.1872 8.45384 82.411 7.37118 83.2625 5.93976C82.6788 4.1823 80.41 2.16663 78.8246 1.44742C78.832 4.74955 78.7101 7.66552 78.3373 10.664C78.2287 10.6665 78.1204 10.6695 78.0126 10.6735C77.8073 10.6914 77.6162 10.7855 77.4769 10.9371C77.3376 11.0887 77.2602 11.2869 77.2601 11.4926C77.2515 11.5905 77.2633 11.6891 77.2949 11.7822C77.3265 11.8752 77.3771 11.9607 77.4435 12.0332C77.5099 12.1057 77.5907 12.1637 77.6808 12.2034C77.7708 12.2431 77.8681 12.2636 77.9666 12.2638C78.0163 12.2618 78.066 12.2604 78.1162 12.2588C78.0414 12.7476 77.9594 13.2412 77.87 13.7394L77.8694 13.7388Z" fill="white"></path>
<path d="M72.9953 62.2841C71.8556 61.9817 70.7448 61.5793 69.676 61.0816C68.632 60.5952 67.634 60.0158 66.6943 59.3505C65.7879 58.7106 64.9345 57.999 64.1424 57.2225C63.8762 56.9608 63.6231 56.695 63.383 56.4251C63.2167 56.2401 63.0928 56.0212 63.02 55.7835C62.9472 55.5459 62.9273 55.2952 62.9616 55.0491C62.9959 54.8029 63.0836 54.5672 63.2186 54.3584C63.3536 54.1496 63.5327 53.9727 63.7432 53.8401L68.2708 50.989C68.6252 50.7637 69.0503 50.6762 69.4651 50.7432C69.8799 50.8103 70.2556 51.0271 70.5207 51.3526C70.9226 51.8468 71.3649 52.3069 71.8432 52.7279C72.7598 53.5585 73.8611 54.1597 75.0563 54.4819C75.5581 54.6225 76.0833 54.6601 76.6001 54.5923C77.0929 54.5235 77.4077 54.2355 77.5443 53.7285C77.6171 53.4851 77.6037 53.2241 77.5064 52.9894C77.3509 52.6878 77.1375 52.4197 76.8783 52.2003C76.446 51.813 75.9883 51.4547 75.5084 51.1278C74.9157 50.7131 74.1665 50.2133 73.2609 49.6283C72.3947 49.0613 71.5702 48.4334 70.7934 47.7494C70.0481 47.098 69.4026 46.3407 68.8777 45.502C68.3617 44.6669 68.0188 43.737 67.8692 42.7674C67.7081 41.7664 67.7967 40.6387 68.1351 39.3844C68.61 37.624 69.3751 36.2263 70.4303 35.1913C71.4525 34.1774 72.6852 33.3998 74.0413 32.9134C75.4208 32.4251 76.8786 32.195 78.3417 32.2347C79.8153 32.26 81.2804 32.4627 82.7054 32.8383C84.6606 33.3746 86.5037 34.2566 88.1469 35.4425C89.3187 36.2648 90.3752 37.2395 91.2886 38.3409C91.4426 38.5315 91.5534 38.7531 91.6134 38.9905C91.6735 39.2279 91.6813 39.4755 91.6365 39.7162C91.5916 39.9569 91.4951 40.1851 91.3536 40.3851C91.212 40.585 91.0288 40.7521 90.8165 40.8747L86.3307 43.507C85.9689 43.7203 85.5412 43.7937 85.1287 43.7133C84.7163 43.633 84.3477 43.4044 84.0928 43.0709C83.7685 42.6435 83.3923 42.258 82.9728 41.9232C82.145 41.2606 81.3558 40.8293 80.6052 40.6295C79.9078 40.4439 79.3178 40.3939 78.8351 40.4795C78.6188 40.5041 78.4155 40.5949 78.2529 40.7395C78.0904 40.884 77.9767 41.0753 77.9275 41.287C77.8124 41.7132 77.9474 42.0918 78.3325 42.4228C78.949 42.9195 79.5958 43.3774 80.2693 43.7938C81.2019 44.3841 82.1738 45.0424 83.1853 45.7686C84.1796 46.4789 85.0772 47.3152 85.8556 48.2564C86.617 49.1761 87.1878 50.2376 87.5347 51.3793C87.8858 52.5295 87.8638 53.8368 87.4687 55.3013C87.0089 57.0062 86.2664 58.4001 85.2412 59.4831C84.2497 60.5426 83.0397 61.3746 81.6947 61.9218C80.3366 62.4684 78.8906 62.7653 77.4266 62.7984C75.9324 62.8417 74.4397 62.6685 72.9953 62.2841Z" fill="white"></path>
<path d="M13.0022 50.7251C12.4127 48.5067 12.267 46.392 12.5649 44.381C12.8377 42.4406 13.5033 40.576 14.5213 38.9007C15.5481 37.2364 16.8986 35.7943 18.4932 34.6598C20.1741 33.4564 22.0613 32.5697 24.0616 32.0435C26.1086 31.4771 28.24 31.278 30.3568 31.4553C31.6238 31.5568 32.8737 31.8128 34.0784 32.2176C34.3084 32.2959 34.5194 32.4213 34.698 32.5858C34.8766 32.7504 35.0187 32.9503 35.1153 33.1729C35.2119 33.3955 35.2607 33.6358 35.2588 33.8784C35.2568 34.121 35.2041 34.3604 35.1039 34.5814L32.7575 39.7306C32.585 40.1211 32.2706 40.4318 31.8777 40.6002C31.4847 40.7685 31.0425 40.7818 30.64 40.6376C30.3181 40.5178 29.9851 40.4298 29.6458 40.375C28.73 40.235 27.7947 40.2943 26.904 40.5489C26.157 40.7445 25.4553 41.0837 24.8384 41.5475C24.2439 41.9974 23.7503 42.5665 23.3894 43.2184C23.0147 43.9044 22.7833 44.6591 22.7092 45.437C22.6268 46.3113 22.7059 47.1933 22.9427 48.039C23.1501 48.8794 23.523 49.6702 24.0397 50.3653C24.5025 50.9802 25.0788 51.5011 25.7375 51.9C26.3736 52.2834 27.084 52.5277 27.8217 52.6168C28.574 52.7087 29.3371 52.6523 30.0678 52.4508C31.1289 52.164 31.9826 51.6955 32.6288 51.0454C32.8367 50.8369 33.0319 50.6161 33.2134 50.3842C33.4881 50.0437 33.8836 49.8218 34.3178 49.7646C34.752 49.7074 35.1917 49.8193 35.5454 50.077L40.1381 53.339C40.3268 53.4723 40.4868 53.642 40.6087 53.838C40.7306 54.034 40.812 54.2524 40.848 54.4803C40.884 54.7082 40.8739 54.941 40.8183 55.165C40.7627 55.3889 40.6628 55.5995 40.5244 55.7842C39.7155 56.8231 38.7731 57.7512 37.7216 58.5446C36.107 59.7778 34.1477 60.7057 31.8437 61.3283C29.8523 61.8812 27.7751 62.0582 25.7186 61.8503C23.772 61.6644 21.884 61.0833 20.1704 60.1427C18.4569 59.2021 16.9541 57.9218 15.7542 56.3805C14.5022 54.8032 13.5849 52.918 13.0022 50.7251Z" fill="white"></path>
<path d="M14.9556 81.8419C14.9556 82.0171 14.9098 82.1732 14.8183 82.3103C14.7267 82.4398 14.6199 82.5426 14.4978 82.6188C14.2994 82.4893 14.0819 82.3751 13.8454 82.276C13.6165 82.177 13.3418 82.1275 13.0213 82.1275C12.4108 82.1275 11.9339 82.3217 11.5906 82.7102C11.2472 83.091 11.0755 83.6356 11.0755 84.344C11.0755 85.0752 11.2548 85.6274 11.6134 86.0006C11.9797 86.3662 12.4795 86.549 13.1128 86.549C13.441 86.549 13.7195 86.5071 13.9484 86.4233C14.1849 86.3319 14.4024 86.2253 14.6008 86.1034C14.7153 86.1948 14.8068 86.3129 14.8755 86.4576C14.9518 86.5947 14.99 86.7509 14.99 86.926C14.99 87.0784 14.948 87.2231 14.8641 87.3602C14.7878 87.4897 14.6504 87.6001 14.452 87.6915C14.2994 87.7677 14.0934 87.8362 13.8339 87.8972C13.5745 87.9657 13.254 88 12.8725 88C12.3612 88 11.8843 87.9276 11.4418 87.7829C10.9992 87.6382 10.6138 87.4173 10.2857 87.1203C9.95761 86.8232 9.69817 86.4462 9.50741 85.9892C9.32428 85.5246 9.23271 84.9762 9.23271 84.344C9.23271 83.7499 9.32428 83.2243 9.50741 82.7673C9.69817 82.3103 9.9538 81.9295 10.2743 81.6248C10.5948 81.3125 10.9687 81.0764 11.396 80.9164C11.8233 80.7565 12.2811 80.6765 12.7695 80.6765C13.4639 80.6765 14.0018 80.787 14.3833 81.0079C14.7649 81.2287 14.9556 81.5067 14.9556 81.8419Z" fill="white"></path>
<path d="M17.1004 87.7943C17.0241 87.8172 16.9172 87.8362 16.7799 87.8515C16.6425 87.8743 16.4899 87.8857 16.3221 87.8857C15.9787 87.8857 15.7307 87.8324 15.5781 87.7258C15.4255 87.6115 15.3492 87.3945 15.3492 87.0746V83.5899C15.3492 83.3766 15.4026 83.1938 15.5094 83.0415C15.6162 82.8892 15.765 82.7559 15.9558 82.6416C16.2076 82.4893 16.509 82.3712 16.86 82.2875C17.2187 82.1961 17.5926 82.1504 17.9817 82.1504C18.7753 82.1504 19.1721 82.4169 19.1721 82.9501C19.1721 83.0796 19.153 83.1977 19.1148 83.3043C19.0767 83.4109 19.0347 83.5023 18.9889 83.5785C18.8134 83.5404 18.5998 83.5214 18.348 83.5214C18.1267 83.5214 17.9054 83.548 17.6841 83.6013C17.4628 83.6547 17.2683 83.727 17.1004 83.8184V87.7943Z" fill="white"></path>
<path d="M24.8226 85.0523C24.8226 85.5017 24.7539 85.9092 24.6165 86.2748C24.4792 86.6328 24.2808 86.9375 24.0214 87.1888C23.7695 87.4402 23.4643 87.6344 23.1057 87.7715C22.747 87.9086 22.3464 87.9772 21.9039 87.9772C21.4613 87.9772 21.0569 87.9124 20.6906 87.7829C20.332 87.6458 20.0229 87.4516 19.7635 87.2002C19.5117 86.9489 19.3171 86.6442 19.1798 86.2862C19.0424 85.9206 18.9737 85.5093 18.9737 85.0523C18.9737 84.6106 19.0424 84.2107 19.1798 83.8527C19.3247 83.4871 19.5231 83.1786 19.7749 82.9273C20.0344 82.6759 20.3434 82.4817 20.7021 82.3446C21.0683 82.2075 21.4689 82.1389 21.9039 82.1389C22.3388 82.1389 22.7356 82.2075 23.0942 82.3446C23.4529 82.4817 23.7581 82.6797 24.0099 82.9387C24.2693 83.19 24.4677 83.4947 24.6051 83.8527C24.7501 84.2107 24.8226 84.6106 24.8226 85.0523ZM21.9039 83.5099C21.5452 83.5099 21.2667 83.6432 21.0683 83.9098C20.8699 84.1764 20.7707 84.5572 20.7707 85.0523C20.7707 85.5626 20.8661 85.9511 21.0569 86.2177C21.2553 86.4767 21.5376 86.6061 21.9039 86.6061C22.2701 86.6061 22.5487 86.4728 22.7394 86.2063C22.9378 85.9397 23.037 85.555 23.037 85.0523C23.037 84.5649 22.9378 84.1878 22.7394 83.9212C22.541 83.647 22.2625 83.5099 21.9039 83.5099Z" fill="white"></path>
<path d="M29.0944 84.5382C29.0257 84.82 28.9494 85.1095 28.8654 85.4065C28.7815 85.7036 28.6976 85.993 28.6136 86.2748C28.5297 86.5566 28.4496 86.8156 28.3733 87.0517C28.297 87.2878 28.2359 87.4821 28.1901 87.6344C27.9841 87.8172 27.656 87.9086 27.2058 87.9086C26.9311 87.9086 26.6907 87.8705 26.4847 87.7943C26.2787 87.7182 26.1413 87.6039 26.0727 87.4516C25.9887 87.2688 25.8895 86.9794 25.7751 86.5833C25.6606 86.1872 25.5461 85.7531 25.4317 85.2808C25.3249 84.8086 25.2219 84.3287 25.1227 83.8413C25.0235 83.3538 24.9433 82.9273 24.8823 82.5617C24.9739 82.4626 25.0998 82.3789 25.26 82.3103C25.4279 82.2341 25.6072 82.1961 25.798 82.1961C26.0421 82.1961 26.2405 82.2532 26.3931 82.3674C26.5458 82.4741 26.6411 82.6607 26.6793 82.9273C26.7556 83.4604 26.8205 83.9174 26.8739 84.2983C26.9349 84.6791 26.9883 85.0028 27.0341 85.2694C27.0799 85.536 27.118 85.7531 27.1486 85.9206C27.1867 86.0806 27.2134 86.2063 27.2287 86.2977H27.2745C27.305 86.1758 27.3508 85.993 27.4118 85.7493C27.4729 85.5055 27.5454 85.2313 27.6293 84.9267C27.7132 84.6144 27.801 84.283 27.8925 83.9327C27.9917 83.5747 28.0871 83.2167 28.1787 82.8587C28.3084 82.7825 28.4419 82.7254 28.5793 82.6873C28.7243 82.6416 28.896 82.6188 29.0944 82.6188C29.3385 82.6188 29.5446 82.6607 29.7124 82.7445C29.8879 82.8206 29.9986 82.9387 30.0444 83.0986C30.1436 83.4414 30.2389 83.7803 30.3305 84.1155C30.4221 84.443 30.506 84.7477 30.5823 85.0295C30.6586 85.3113 30.7235 85.5626 30.7769 85.7835C30.8379 86.0044 30.8837 86.1758 30.9142 86.2977H30.9715C31.0783 85.6959 31.1813 85.0676 31.2805 84.4125C31.3797 83.7499 31.4713 83.0796 31.5552 82.4017C31.6773 82.3332 31.807 82.2837 31.9444 82.2532C32.0817 82.2151 32.2191 82.1961 32.3564 82.1961C32.593 82.1961 32.7875 82.2494 32.9402 82.356C33.1004 82.455 33.1805 82.6302 33.1805 82.8816C33.1805 82.9958 33.1576 83.1748 33.1118 83.4185C33.0737 83.6623 33.0203 83.9365 32.9516 84.2411C32.8906 84.5458 32.8181 84.8695 32.7341 85.2123C32.6502 85.5474 32.5663 85.8711 32.4823 86.1834C32.3984 86.4957 32.3145 86.7813 32.2305 87.0403C32.1542 87.2993 32.0894 87.4973 32.0359 87.6344C31.952 87.7182 31.8108 87.7829 31.6124 87.8286C31.414 87.8819 31.2004 87.9086 30.9715 87.9086C30.3916 87.9086 30.052 87.7677 29.9528 87.4859C29.8994 87.3335 29.8345 87.1469 29.7582 86.926C29.6819 86.7052 29.6018 86.4652 29.5179 86.2063C29.4415 85.9397 29.3652 85.6655 29.2889 85.3837C29.2126 85.0942 29.1478 84.8124 29.0944 84.5382Z" fill="white"></path>
<path d="M37.1327 84.2983C37.1327 84.0317 37.0526 83.8336 36.8924 83.7042C36.7321 83.5747 36.5185 83.5099 36.2514 83.5099C36.0683 83.5099 35.9004 83.5328 35.7478 83.5785C35.5952 83.6242 35.454 83.6813 35.3243 83.7499V87.7943C35.248 87.8172 35.1412 87.8362 35.0038 87.8515C34.8665 87.8743 34.7138 87.8857 34.546 87.8857C34.2026 87.8857 33.9546 87.8324 33.802 87.7258C33.6494 87.6115 33.5731 87.3945 33.5731 87.0746V83.5442C33.5731 83.3462 33.615 83.1862 33.699 83.0644C33.7829 82.9425 33.9012 82.8282 34.0538 82.7216C34.298 82.5464 34.6108 82.4055 34.9924 82.2989C35.3815 82.1923 35.8088 82.1389 36.2743 82.1389C37.106 82.1389 37.747 82.3217 38.1972 82.6873C38.655 83.0529 38.8839 83.5747 38.8839 84.2526V87.7943C38.8 87.8172 38.6894 87.8362 38.552 87.8515C38.4147 87.8743 38.2621 87.8857 38.0942 87.8857C37.7508 87.8857 37.5028 87.8324 37.3502 87.7258C37.2052 87.6115 37.1327 87.3945 37.1327 87.0746V84.2983Z" fill="white"></path>
<path d="M46.8542 81.8419C46.8542 82.0171 46.8084 82.1732 46.7168 82.3103C46.6253 82.4398 46.5184 82.5426 46.3963 82.6188C46.198 82.4893 45.9805 82.3751 45.7439 82.276C45.515 82.177 45.2403 82.1275 44.9198 82.1275C44.3094 82.1275 43.8325 82.3217 43.4891 82.7102C43.1457 83.091 42.974 83.6356 42.974 84.344C42.974 85.0752 43.1534 85.6274 43.512 86.0006C43.8783 86.3662 44.3781 86.549 45.0114 86.549C45.3395 86.549 45.618 86.5071 45.8469 86.4233C46.0835 86.3319 46.301 86.2253 46.4994 86.1034C46.6138 86.1948 46.7054 86.3129 46.7741 86.4576C46.8504 86.5947 46.8885 86.7509 46.8885 86.926C46.8885 87.0784 46.8465 87.2231 46.7626 87.3602C46.6863 87.4897 46.549 87.6001 46.3506 87.6915C46.1979 87.7677 45.9919 87.8362 45.7325 87.8972C45.473 87.9657 45.1526 88 44.771 88C44.2598 88 43.7829 87.9276 43.3403 87.7829C42.8977 87.6382 42.5124 87.4173 42.1843 87.1203C41.8562 86.8232 41.5967 86.4462 41.406 85.9892C41.2228 85.5246 41.1313 84.9762 41.1313 84.344C41.1313 83.7499 41.2228 83.2243 41.406 82.7673C41.5967 82.3103 41.8523 81.9295 42.1728 81.6248C42.4933 81.3125 42.8672 81.0764 43.2945 80.9164C43.7218 80.7565 44.1797 80.6765 44.668 80.6765C45.3624 80.6765 45.9004 80.787 46.2819 81.0079C46.6634 81.2287 46.8542 81.5067 46.8542 81.8419Z" fill="white"></path>
<path d="M52.7553 85.0523C52.7553 85.5017 52.6866 85.9092 52.5493 86.2748C52.4119 86.6328 52.2135 86.9375 51.9541 87.1888C51.7023 87.4402 51.3971 87.6344 51.0384 87.7715C50.6798 87.9086 50.2792 87.9772 49.8366 87.9772C49.3941 87.9772 48.9896 87.9124 48.6234 87.7829C48.2647 87.6458 47.9557 87.4516 47.6963 87.2002C47.4444 86.9489 47.2499 86.6442 47.1125 86.2862C46.9752 85.9206 46.9065 85.5093 46.9065 85.0523C46.9065 84.6106 46.9752 84.2107 47.1125 83.8527C47.2575 83.4871 47.4559 83.1786 47.7077 82.9273C47.9671 82.6759 48.2762 82.4817 48.6348 82.3446C49.0011 82.2075 49.4017 82.1389 49.8366 82.1389C50.2716 82.1389 50.6684 82.2075 51.027 82.3446C51.3856 82.4817 51.6908 82.6797 51.9427 82.9387C52.2021 83.19 52.4005 83.4947 52.5378 83.8527C52.6828 84.2107 52.7553 84.6106 52.7553 85.0523ZM49.8366 83.5099C49.478 83.5099 49.1995 83.6432 49.0011 83.9098C48.8027 84.1764 48.7035 84.5572 48.7035 85.0523C48.7035 85.5626 48.7989 85.9511 48.9896 86.2177C49.188 86.4767 49.4704 86.6061 49.8366 86.6061C50.2029 86.6061 50.4814 86.4728 50.6722 86.2063C50.8706 85.9397 50.9698 85.555 50.9698 85.0523C50.9698 84.5649 50.8706 84.1878 50.6722 83.9212C50.4738 83.647 50.1953 83.5099 49.8366 83.5099Z" fill="white"></path>
<path d="M55.0225 87.7943C54.9462 87.8172 54.8393 87.8362 54.702 87.8515C54.5646 87.8743 54.412 87.8857 54.2442 87.8857C53.9008 87.8857 53.6528 87.8324 53.5002 87.7258C53.3552 87.6115 53.2827 87.3945 53.2827 87.0746V82.3789C53.359 82.356 53.4658 82.3332 53.6032 82.3103C53.7405 82.2875 53.8932 82.276 54.061 82.276C54.4044 82.276 54.6486 82.3332 54.7936 82.4474C54.9462 82.5617 55.0225 82.7787 55.0225 83.0986V87.7943ZM53.1797 80.7337C53.1797 80.4747 53.2674 80.2538 53.443 80.071C53.6261 79.8882 53.8626 79.7968 54.1526 79.7968C54.4426 79.7968 54.6753 79.8882 54.8508 80.071C55.0339 80.2538 55.1255 80.4747 55.1255 80.7337C55.1255 81.0002 55.0339 81.2249 54.8508 81.4077C54.6753 81.5905 54.4426 81.6819 54.1526 81.6819C53.8626 81.6819 53.6261 81.5905 53.443 81.4077C53.2674 81.2249 53.1797 81.0002 53.1797 80.7337Z" fill="white"></path>
<path d="M59.3537 84.2983C59.3537 84.0317 59.2736 83.8336 59.1134 83.7042C58.9531 83.5747 58.7395 83.5099 58.4724 83.5099C58.2893 83.5099 58.1214 83.5328 57.9688 83.5785C57.8162 83.6242 57.675 83.6813 57.5453 83.7499V87.7943C57.469 87.8172 57.3622 87.8362 57.2248 87.8515C57.0875 87.8743 56.9349 87.8857 56.767 87.8857C56.4236 87.8857 56.1756 87.8324 56.023 87.7258C55.8704 87.6115 55.7941 87.3945 55.7941 87.0746V83.5442C55.7941 83.3462 55.8361 83.1862 55.92 83.0644C56.0039 82.9425 56.1222 82.8282 56.2748 82.7216C56.519 82.5464 56.8318 82.4055 57.2134 82.2989C57.6025 82.1923 58.0298 82.1389 58.4953 82.1389C59.327 82.1389 59.968 82.3217 60.4182 82.6873C60.876 83.0529 61.105 83.5747 61.105 84.2526V87.7943C61.021 87.8172 60.9104 87.8362 60.773 87.8515C60.6357 87.8743 60.4831 87.8857 60.3152 87.8857C59.9718 87.8857 59.7238 87.8324 59.5712 87.7258C59.4262 87.6115 59.3537 87.3945 59.3537 87.0746V84.2983Z" fill="white"></path>
<path d="M66.3374 86.1948C66.3374 86.7585 66.1276 87.2002 65.7079 87.5201C65.2882 87.8324 64.6701 87.9886 63.8537 87.9886C63.5332 87.9886 63.2394 87.9657 62.9723 87.92C62.7129 87.8743 62.4878 87.8058 62.297 87.7144C62.1063 87.623 61.9575 87.5087 61.8506 87.3716C61.7438 87.2345 61.6904 87.0746 61.6904 86.8918C61.6904 86.7242 61.7247 86.5833 61.7934 86.469C61.8621 86.3472 61.9498 86.2482 62.0567 86.172C62.2779 86.3015 62.5298 86.4157 62.8121 86.5147C63.0944 86.6138 63.4225 86.6633 63.7964 86.6633C64.3382 86.6633 64.6091 86.5109 64.6091 86.2063C64.6091 86.0768 64.5595 85.9778 64.4603 85.9092C64.3687 85.8407 64.2085 85.7797 63.9796 85.7264L63.5217 85.6236C62.896 85.4941 62.4306 85.2961 62.1253 85.0295C61.8201 84.7553 61.6675 84.3744 61.6675 83.887C61.6675 83.3462 61.885 82.9196 62.3199 82.6074C62.7625 82.2875 63.3539 82.1275 64.094 82.1275C64.3687 82.1275 64.6282 82.1504 64.8723 82.1961C65.1165 82.2341 65.3264 82.2951 65.5019 82.3789C65.6774 82.4626 65.8147 82.5693 65.9139 82.6988C66.0207 82.8206 66.0741 82.9653 66.0741 83.1329C66.0741 83.2852 66.0436 83.4223 65.9826 83.5442C65.9215 83.6585 65.8414 83.7537 65.7422 83.8298C65.6812 83.7918 65.5896 83.7499 65.4675 83.7042C65.3531 83.6585 65.2272 83.6166 65.0898 83.5785C64.9525 83.5404 64.8075 83.5099 64.6549 83.4871C64.5022 83.4642 64.3611 83.4528 64.2314 83.4528C63.9643 83.4528 63.7545 83.4909 63.6018 83.5671C63.4569 83.6356 63.3844 83.7423 63.3844 83.887C63.3844 83.9936 63.4263 84.0774 63.5103 84.1383C63.5942 84.1993 63.7468 84.2564 63.9681 84.3097L64.4031 84.4125C65.0974 84.5649 65.5934 84.7858 65.891 85.0752C66.1886 85.3646 66.3374 85.7378 66.3374 86.1948Z" fill="white"></path>
<path d="M74.0358 81.8419C74.0358 82.0171 73.99 82.1732 73.8984 82.3103C73.8069 82.4398 73.7001 82.5426 73.578 82.6188C73.3796 82.4893 73.1621 82.3751 72.9256 82.276C72.6966 82.177 72.4219 82.1275 72.1014 82.1275C71.491 82.1275 71.0141 82.3217 70.6707 82.7102C70.3273 83.091 70.1557 83.6356 70.1557 84.344C70.1557 85.0752 70.335 85.6274 70.6936 86.0006C71.0599 86.3662 71.5597 86.549 72.193 86.549C72.5211 86.549 72.7996 86.5071 73.0286 86.4233C73.2651 86.3319 73.4826 86.2253 73.681 86.1034C73.7954 86.1948 73.887 86.3129 73.9557 86.4576C74.032 86.5947 74.0701 86.7509 74.0701 86.926C74.0701 87.0784 74.0282 87.2231 73.9442 87.3602C73.8679 87.4897 73.7306 87.6001 73.5322 87.6915C73.3796 87.7677 73.1735 87.8362 72.9141 87.8972C72.6547 87.9657 72.3342 88 71.9527 88C71.4414 88 70.9645 87.9276 70.5219 87.7829C70.0794 87.6382 69.694 87.4173 69.3659 87.1203C69.0378 86.8232 68.7783 86.4462 68.5876 85.9892C68.4044 85.5246 68.3129 84.9762 68.3129 84.344C68.3129 83.7499 68.4044 83.2243 68.5876 82.7673C68.7783 82.3103 69.034 81.9295 69.3544 81.6248C69.6749 81.3125 70.0488 81.0764 70.4761 80.9164C70.9035 80.7565 71.3613 80.6765 71.8496 80.6765C72.544 80.6765 73.082 80.787 73.4635 81.0079C73.845 81.2287 74.0358 81.5067 74.0358 81.8419Z" fill="white"></path>
<path d="M76.7967 86.6975C76.9646 86.6975 77.1287 86.6823 77.2889 86.6518C77.4568 86.6138 77.5827 86.5681 77.6666 86.5147V85.4636L76.7281 85.5436C76.4839 85.5665 76.2855 85.6236 76.1329 85.715C75.9879 85.7988 75.9154 85.9283 75.9154 86.1034C75.9154 86.2862 75.9841 86.431 76.1214 86.5376C76.2588 86.6442 76.4839 86.6975 76.7967 86.6975ZM76.7281 82.1389C77.1249 82.1389 77.4835 82.1808 77.804 82.2646C78.1321 82.3408 78.4106 82.4626 78.6395 82.6302C78.8684 82.7978 79.0439 83.011 79.166 83.27C79.2958 83.529 79.3606 83.8336 79.3606 84.184V86.7661C79.3606 86.9641 79.3072 87.1241 79.2004 87.2459C79.1012 87.3602 78.9791 87.4592 78.8341 87.543C78.5975 87.6877 78.3076 87.7982 77.9642 87.8743C77.6208 87.9505 77.2317 87.9886 76.7967 87.9886C76.0108 87.9886 75.3851 87.84 74.9196 87.543C74.4542 87.2383 74.2214 86.7775 74.2214 86.1606C74.2214 85.635 74.3779 85.2351 74.6907 84.9609C75.0036 84.6867 75.4843 84.5154 76.1329 84.4468L77.6552 84.2868V84.1612C77.6552 83.9174 77.556 83.7384 77.3576 83.6242C77.1592 83.5099 76.8731 83.4528 76.4992 83.4528C76.2092 83.4528 75.923 83.4871 75.6407 83.5556C75.366 83.6242 75.118 83.7042 74.8967 83.7956C74.8052 83.7346 74.725 83.6432 74.6564 83.5214C74.5953 83.3919 74.5648 83.2548 74.5648 83.1101C74.5648 82.7749 74.7403 82.535 75.0913 82.3903C75.3126 82.3065 75.5682 82.2456 75.8582 82.2075C76.1558 82.1618 76.4457 82.1389 76.7281 82.1389Z" fill="white"></path>
<path d="M84.5703 86.1948C84.5703 86.7585 84.3604 87.2002 83.9407 87.5201C83.521 87.8324 82.903 87.9886 82.0865 87.9886C81.766 87.9886 81.4722 87.9657 81.2052 87.92C80.9457 87.8743 80.7206 87.8058 80.5299 87.7144C80.3391 87.623 80.1903 87.5087 80.0835 87.3716C79.9767 87.2345 79.9232 87.0746 79.9232 86.8918C79.9232 86.7242 79.9576 86.5833 80.0263 86.469C80.0949 86.3472 80.1827 86.2482 80.2895 86.172C80.5108 86.3015 80.7626 86.4157 81.0449 86.5147C81.3273 86.6138 81.6554 86.6633 82.0293 86.6633C82.571 86.6633 82.8419 86.5109 82.8419 86.2063C82.8419 86.0768 82.7923 85.9778 82.6931 85.9092C82.6016 85.8407 82.4413 85.7797 82.2124 85.7264L81.7546 85.6236C81.1289 85.4941 80.6634 85.2961 80.3582 85.0295C80.053 84.7553 79.9004 84.3744 79.9004 83.887C79.9004 83.3462 80.1178 82.9196 80.5528 82.6074C80.9953 82.2875 81.5867 82.1275 82.3269 82.1275C82.6016 82.1275 82.861 82.1504 83.1052 82.1961C83.3494 82.2341 83.5592 82.2951 83.7347 82.3789C83.9102 82.4626 84.0476 82.5693 84.1468 82.6988C84.2536 82.8206 84.307 82.9653 84.307 83.1329C84.307 83.2852 84.2765 83.4223 84.2154 83.5442C84.1544 83.6585 84.0743 83.7537 83.9751 83.8298C83.914 83.7918 83.8225 83.7499 83.7004 83.7042C83.5859 83.6585 83.46 83.6166 83.3227 83.5785C83.1853 83.5404 83.0403 83.5099 82.8877 83.4871C82.7351 83.4642 82.5939 83.4528 82.4642 83.4528C82.1972 83.4528 81.9873 83.4909 81.8347 83.5671C81.6897 83.6356 81.6172 83.7423 81.6172 83.887C81.6172 83.9936 81.6592 84.0774 81.7431 84.1383C81.8271 84.1993 81.9797 84.2564 82.201 84.3097L82.6359 84.4125C83.3303 84.5649 83.8263 84.7858 84.1239 85.0752C84.4215 85.3646 84.5703 85.7378 84.5703 86.1948Z" fill="white"></path>
<path d="M86.8182 87.7943C86.7419 87.8172 86.6351 87.8362 86.4977 87.8515C86.3604 87.8743 86.2077 87.8857 86.0399 87.8857C85.6965 87.8857 85.4485 87.8324 85.2959 87.7258C85.1509 87.6115 85.0784 87.3945 85.0784 87.0746V82.3789C85.1547 82.356 85.2616 82.3332 85.3989 82.3103C85.5363 82.2875 85.6889 82.276 85.8567 82.276C86.2001 82.276 86.4443 82.3332 86.5893 82.4474C86.7419 82.5617 86.8182 82.7787 86.8182 83.0986V87.7943ZM84.9754 80.7337C84.9754 80.4747 85.0632 80.2538 85.2387 80.071C85.4218 79.8882 85.6584 79.7968 85.9483 79.7968C86.2383 79.7968 86.471 79.8882 86.6465 80.071C86.8296 80.2538 86.9212 80.4747 86.9212 80.7337C86.9212 81.0002 86.8296 81.2249 86.6465 81.4077C86.471 81.5905 86.2383 81.6819 85.9483 81.6819C85.6584 81.6819 85.4218 81.5905 85.2387 81.4077C85.0632 81.2249 84.9754 81.0002 84.9754 80.7337Z" fill="white"></path>
<path d="M91.1495 84.2983C91.1495 84.0317 91.0693 83.8336 90.9091 83.7042C90.7489 83.5747 90.5352 83.5099 90.2681 83.5099C90.085 83.5099 89.9171 83.5328 89.7645 83.5785C89.6119 83.6242 89.4707 83.6813 89.341 83.7499V87.7943C89.2647 87.8172 89.1579 87.8362 89.0205 87.8515C88.8832 87.8743 88.7306 87.8857 88.5627 87.8857C88.2193 87.8857 87.9713 87.8324 87.8187 87.7258C87.6661 87.6115 87.5898 87.3945 87.5898 87.0746V83.5442C87.5898 83.3462 87.6318 83.1862 87.7157 83.0644C87.7996 82.9425 87.9179 82.8282 88.0705 82.7216C88.3147 82.5464 88.6276 82.4055 89.0091 82.2989C89.3982 82.1923 89.8256 82.1389 90.291 82.1389C91.1227 82.1389 91.7637 82.3217 92.2139 82.6873C92.6718 83.0529 92.9007 83.5747 92.9007 84.2526V87.7943C92.8167 87.8172 92.7061 87.8362 92.5687 87.8515C92.4314 87.8743 92.2788 87.8857 92.1109 87.8857C91.7675 87.8857 91.5195 87.8324 91.3669 87.7258C91.2219 87.6115 91.1495 87.3945 91.1495 87.0746V84.2983Z" fill="white"></path>
<path d="M99.2205 85.0523C99.2205 85.5017 99.1518 85.9092 99.0144 86.2748C98.8771 86.6328 98.6787 86.9375 98.4193 87.1888C98.1674 87.4402 97.8622 87.6344 97.5036 87.7715C97.145 87.9086 96.7444 87.9772 96.3018 87.9772C95.8592 87.9772 95.4548 87.9124 95.0885 87.7829C94.7299 87.6458 94.4209 87.4516 94.1614 87.2002C93.9096 86.9489 93.715 86.6442 93.5777 86.2862C93.4403 85.9206 93.3716 85.5093 93.3716 85.0523C93.3716 84.6106 93.4403 84.2107 93.5777 83.8527C93.7226 83.4871 93.9211 83.1786 94.1729 82.9273C94.4323 82.6759 94.7413 82.4817 95.1 82.3446C95.4662 82.2075 95.8668 82.1389 96.3018 82.1389C96.7367 82.1389 97.1335 82.2075 97.4921 82.3446C97.8508 82.4817 98.156 82.6797 98.4078 82.9387C98.6673 83.19 98.8657 83.4947 99.003 83.8527C99.148 84.2107 99.2205 84.6106 99.2205 85.0523ZM96.3018 83.5099C95.9431 83.5099 95.6646 83.6432 95.4662 83.9098C95.2678 84.1764 95.1686 84.5572 95.1686 85.0523C95.1686 85.5626 95.264 85.9511 95.4548 86.2177C95.6532 86.4767 95.9355 86.6061 96.3018 86.6061C96.6681 86.6061 96.9466 86.4728 97.1373 86.2063C97.3357 85.9397 97.4349 85.555 97.4349 85.0523C97.4349 84.5649 97.3357 84.1878 97.1373 83.9212C96.9389 83.647 96.6604 83.5099 96.3018 83.5099Z" fill="white"></path>
          </svg>